<svg xmlns="http://www.w3.org/2000/svg" viewBox="0 0 330.79 395.44"><defs><style>.cls-1{fill:#ed2224;}</style></defs><title>Logo</title><g id="Layer_2" data-name="Layer 2"><g id="Layer_1-2" data-name="Layer 1"><path class="cls-1" d="M304.28,199.7a120.73,120.73,0,0,0-67.85-42.17L73,121.36V73H186.33a42,42,0,0,1,41.94,38.08l.56,5.74,71.61,16.39.71-9.26c.22-3,.34-5.93.34-8.79A115.29,115.29,0,0,0,186.33,0H0V180.21L63.27,194,220.65,228.8a47.37,47.37,0,0,1,37.14,46.26,47.43,47.43,0,0,1-47.38,47.38H73V229.09L0,212.38V395.44H210.41A120.38,120.38,0,0,0,304.28,199.7Z"/></g></g></svg>